<?xml version="1.0" encoding="utf-8"?>
<!-- Svg Vector Icons : http://www.onlinewebfonts.com/icon -->
<!DOCTYPE svg PUBLIC "-//W3C//DTD SVG 1.1//EN" "http://www.w3.org/Graphics/SVG/1.1/DTD/svg11.dtd">
<svg version="1.1" xmlns="http://www.w3.org/2000/svg" xmlns:xlink="http://www.w3.org/1999/xlink" x="0px" y="0px" viewBox="0 0 1000 1000" enable-background="new 0 0 1000 1000" xml:space="preserve">

<metadata> Svg Vector Icons : http://www.onlinewebfonts.com/icon </metadata>
<g><path d="M682.2,618.8l-123-123l109-109c14.9-14.9,14.9-39,0-53.9c-14.9-14.9-39-14.9-53.9,0l-109,109L395,331.5c-14.9-14.9-39-14.9-53.9,0c-14.9,14.9-14.9,39,0,53.9l110.3,110.3L327.1,620.1c-14.9,14.9-14.9,39,0,53.9c7.4,7.4,17.2,11.2,27,11.2c9.8,0,19.5-3.7,27-11.2l124.3-124.3l123,123c7.4,7.4,17.2,11.2,27,11.2c9.8,0,19.5-3.7,27-11.2C697.1,657.8,697.1,633.7,682.2,618.8z"/><path d="M498.1,989.6c-46.5,0-91.7-6.2-135-18.5c-65.3-18.6-125.9-51.1-179.9-96.6c-0.1-0.1-0.2-0.2-0.3-0.3c-34.1-29.4-64.2-63-89.3-99.9c-47.5-69.6-74.9-146-81.4-227.2c-6.6-81.7-4.3-205.5,91-336.9c5.4-7.4,34.7-46.5,85.2-88.1c59.5-49.1,123.5-81.7,190.2-97c173.8-39.8,329.4,1.2,462.5,122.1c1.1,1,2.2,2.1,3.2,3.3c0.4,0.5,1.9,2,3.1,3.3c54.1,57.2,93.5,120.6,117.2,188.3c48.1,137.6,27.9,285.8-60,440.7c-10.4,18.3-33.7,24.7-52,14.3c-18.3-10.4-24.7-33.7-14.3-52c76.6-134.9,94.9-262,54.4-377.9c-20.1-57.5-54-111.7-100.6-161.1c-1.4-1.5-2.5-2.7-3.5-3.8C673.6,98.9,545.1,65.2,395.6,99.5C255.9,131.5,168.6,250,165,255C85.4,364.8,82.2,465.5,88.2,541c11.3,140.9,95.2,232.9,144.3,275.3c82.2,69.3,179,101.7,287.6,96.4c82.8-4,142-29.6,142.6-29.8c19.2-8.6,41.7,0.1,50.3,19.4c8.6,19.2-0.2,41.8-19.4,50.4c-2.8,1.3-70.4,30.9-166.6,36.1C517.4,989.3,507.7,989.6,498.1,989.6z"/></g>
</svg>